<svg width="386" height="446" viewBox="0 0 386 446" fill="none" xmlns="http://www.w3.org/2000/svg">
<mask id="path-1-inside-1_3_137" fill="white">
<path d="M104.933 0C107.723 0 111.709 0.199094 116.891 0.597656L70.8525 215.247C76.4328 216.642 82.1131 218.635 87.8926 221.226C93.8716 224.016 101.046 227.703 109.417 232.287C122.371 239.263 133.433 244.544 142.601 248.132C151.768 251.919 161.336 253.811 171.301 253.812C180.269 253.812 188.64 252.217 196.413 249.028C194.819 263.577 191.231 275.038 185.65 283.408C180.269 291.779 173.493 295.965 165.321 295.965C164.516 295.965 163.712 295.942 162.908 295.9L149.528 359.084C148.963 361.204 148.681 363.465 148.681 365.867C148.681 368.693 149.317 370.743 150.589 372.015C152.002 373.145 154.263 373.71 157.372 373.71C161.47 373.71 165.286 372.014 168.818 368.623C172.113 365.329 174.545 361.173 176.119 356.158L190.779 287.014H221.303L218.972 298.036C226.037 290.123 234.304 286.166 243.772 286.166C250.98 286.166 256.703 288.144 260.942 292.101C265.182 296.057 267.302 302.063 267.302 310.118C267.302 314.216 266.807 318.809 265.817 323.896C264.828 328.842 263.415 334.92 261.578 342.127C260.448 346.507 259.388 350.817 258.398 355.057C257.551 359.155 257.127 362.405 257.127 364.808C257.127 367.634 257.762 369.824 259.034 371.379C260.306 372.933 262.497 373.711 265.605 373.711C269.845 373.711 273.237 372.226 275.78 369.259C277.401 367.278 279.021 364.636 280.642 361.335C280.635 360.942 280.632 360.545 280.632 360.145C280.632 349.687 282.68 338.735 286.778 327.288C291.018 315.7 297.236 305.95 305.433 298.036C313.77 289.981 323.662 285.953 335.108 285.953C340.902 285.953 345.213 286.943 348.039 288.921C350.865 290.899 352.278 293.514 352.278 296.765V297.188L354.398 287.014H385.134L359.273 409.958C356.447 423.524 351.431 432.922 344.224 438.15C337.158 443.379 329.314 445.993 320.694 445.993C314.053 445.993 308.188 443.803 303.101 439.422C298.155 435.183 295.682 429.742 295.682 423.101C295.682 416.883 297.236 411.795 300.345 407.838C303.454 403.881 307.482 400.773 312.428 398.512C317.374 396.251 324.015 393.848 332.353 391.305L334.261 382.401C326.912 390.315 318.433 394.271 308.824 394.271C300.769 394.271 294.056 391.516 288.687 386.005C286.155 383.407 284.221 380.118 282.883 376.138C280.12 380.59 277.189 384.021 274.085 386.429C267.302 391.657 260.236 394.271 252.888 394.271C244.268 394.271 237.908 392.01 233.81 387.488C229.853 382.825 227.874 377.102 227.874 370.319C227.874 367.352 228.228 364.03 228.935 360.356C229.641 356.541 230.347 352.867 231.054 349.334C231.901 345.802 232.467 343.54 232.75 342.551C233.881 337.605 234.94 332.728 235.93 327.924C236.919 323.119 237.413 319.233 237.413 316.266C237.413 309.059 234.87 305.455 229.782 305.455C226.108 305.455 222.858 307.293 220.031 310.967C217.205 314.5 214.944 319.163 213.248 324.957L198.834 393H168.31L170.742 381.523C168.981 383.356 167.14 384.922 165.215 386.217C157.019 391.587 148.893 394.271 140.838 394.271C134.055 394.271 128.543 392.152 124.304 387.912C121.361 384.868 119.474 380.731 118.645 375.502C110.358 387.166 99.4998 393 86.0654 393C80.2716 393 75.5374 391.445 71.8633 388.336C68.3306 385.227 66.1399 380.705 65.292 374.771C61.6179 380.423 57.166 385.086 51.9375 388.76C46.8502 392.434 40.8443 394.271 33.9199 394.271C25.865 394.271 19.1522 391.516 13.7822 386.005C8.41227 380.494 5.72757 371.873 5.72754 360.144C5.7276 349.686 7.77697 338.734 11.875 327.288C16.1144 315.7 22.3322 305.95 30.5283 298.036C38.8659 289.981 48.7586 285.953 60.2051 285.953C65.9986 285.953 70.3085 286.943 73.1348 288.921C75.961 290.899 77.3739 293.514 77.374 296.764V297.612L86.8223 257.546C86.8683 257.579 96.0389 264.18 100.255 267.459C104.472 270.739 111.962 277.525 111.995 277.556L94.7559 359.084C94.1906 361.204 93.9082 363.465 93.9082 365.867C93.9082 368.693 94.5446 370.743 95.8164 372.015C97.2296 373.145 99.491 373.71 102.6 373.71C106.556 373.71 109.948 372.014 112.774 368.623C115.742 365.232 118.074 360.709 119.77 355.057H119.853L134.759 285.796C126.853 280.847 117.209 273.874 105.83 264.873C95.8652 256.901 87.2949 250.424 80.1201 245.441C73.1446 240.658 65.4711 236.572 57.1006 233.184C48.9293 229.796 40.5581 228.102 31.9883 228.102C28.9991 228.102 26.7067 228.201 25.1123 228.4L69.6562 21.2256C56.3032 26.6068 45.9396 34.8782 38.5654 46.0391C31.3907 57.0006 27.8028 70.4534 27.8027 86.3975C27.8027 93.7715 28.5004 98.9538 29.8955 101.943C31.2906 104.734 31.9883 106.328 31.9883 106.727C21.2261 106.727 13.1536 104.534 7.77246 100.149C2.5909 95.5654 5.08618e-06 88.091 0 77.7275C0.000129154 64.9725 5.18248 52.6161 15.5459 40.6582C26.1088 28.5009 39.5617 18.7345 55.9043 11.3604C72.2469 3.78695 88.59 9.04137e-05 104.933 0ZM330.869 398.087C323.38 400.631 317.585 403.599 313.487 406.99C309.389 410.382 307.34 414.763 307.34 420.133C307.34 421.828 308.188 423.383 309.884 424.796C311.58 426.35 313.558 427.128 315.819 427.128C318.363 427.128 320.765 425.785 323.026 423.101C325.287 420.557 327.053 416.388 328.325 410.594L330.869 398.087ZM341.68 299.096C336.027 299.096 330.94 302.417 326.418 309.059C321.896 315.559 318.363 323.473 315.819 332.8C313.276 341.985 312.004 350.111 312.004 357.177C312.004 364.242 312.992 368.765 314.971 370.743C317.09 372.722 319.635 373.711 322.603 373.711C325.853 373.711 329.102 372.367 332.353 369.683C335.744 366.856 338.146 362.9 339.56 357.812L350.371 306.515C349.241 301.569 346.343 299.096 341.68 299.096ZM66.7754 299.096C61.123 299.096 56.0356 302.417 51.5137 309.059C46.9917 315.559 43.4587 323.473 40.915 332.8C38.3715 341.985 37.0996 350.111 37.0996 357.177C37.0997 364.242 38.0891 368.764 40.0674 370.742C42.1871 372.721 44.7307 373.71 47.6982 373.71C51.0897 373.71 54.4816 372.156 57.873 369.047C61.4058 365.938 63.8082 361.627 65.0801 356.116V355.057L75.4668 306.515C74.1949 301.569 71.2975 299.096 66.7754 299.096ZM184.427 70.2539C192.598 70.254 198.676 71.6495 202.662 74.4395C206.648 77.2297 208.642 80.917 208.642 85.501V87.5938L211.93 71.749H254.979L233.454 173.393C232.657 176.382 232.259 179.571 232.259 182.959C232.259 191.529 236.345 195.814 244.516 195.814C250.096 195.814 254.879 193.223 258.865 188.041C263.05 182.859 266.339 176.083 268.73 167.713H268.826L289.17 71.749H332.219L328.333 90.2842C335.109 84.3052 341.188 79.721 346.569 76.5322C352.15 73.3436 358.129 71.7491 364.506 71.749C370.883 71.749 375.867 73.9416 379.454 78.3262C383.241 82.7106 385.134 87.9919 385.134 94.1699C385.134 99.9496 383.241 105.032 379.454 109.417C375.667 113.801 370.385 115.994 363.609 115.994C359.225 115.994 356.235 114.997 354.641 113.004C353.246 110.812 352.15 107.723 351.353 103.737C350.755 101.146 350.156 99.2524 349.559 98.0566C348.961 96.8609 347.864 96.2627 346.27 96.2627C342.085 96.2628 338.497 97.1596 335.508 98.9531C332.718 100.548 329.03 103.438 324.446 107.623L300.53 221.226H257.481L260.823 205.458C258.565 207.864 256.219 209.931 253.783 211.658C243.021 219.232 232.159 223.019 221.197 223.019C212.827 223.018 206.051 220.726 200.869 216.143C195.887 211.359 192.897 204.484 191.9 195.516C186.121 203.687 179.643 210.363 172.468 215.545C165.492 220.527 157.122 223.019 147.356 223.019C135.996 223.018 126.529 219.132 118.956 211.359C111.383 203.587 107.596 191.43 107.596 174.888C107.596 160.139 110.485 144.693 116.265 128.55C122.244 112.207 131.014 98.4558 142.573 87.2949C154.332 75.9348 168.283 70.254 184.427 70.2539ZM193.693 88.7891C185.722 88.7894 178.546 93.473 172.169 102.84C165.791 112.008 160.809 123.169 157.222 136.322C153.634 149.277 151.841 160.737 151.841 170.702C151.841 180.667 153.235 187.044 156.025 189.835C159.015 192.625 162.603 194.02 166.788 194.021C171.771 194.021 176.653 191.728 181.437 187.145C186.419 182.361 189.808 175.884 191.602 167.713L205.951 100.149C205.951 97.5585 204.954 95.0674 202.961 92.6758C200.968 90.085 197.879 88.7891 193.693 88.7891Z"/>
</mask>
<path d="M104.933 0C107.723 0 111.709 0.199094 116.891 0.597656L70.8525 215.247C76.4328 216.642 82.1131 218.635 87.8926 221.226C93.8716 224.016 101.046 227.703 109.417 232.287C122.371 239.263 133.433 244.544 142.601 248.132C151.768 251.919 161.336 253.811 171.301 253.812C180.269 253.812 188.64 252.217 196.413 249.028C194.819 263.577 191.231 275.038 185.65 283.408C180.269 291.779 173.493 295.965 165.321 295.965C164.516 295.965 163.712 295.942 162.908 295.9L149.528 359.084C148.963 361.204 148.681 363.465 148.681 365.867C148.681 368.693 149.317 370.743 150.589 372.015C152.002 373.145 154.263 373.71 157.372 373.71C161.47 373.71 165.286 372.014 168.818 368.623C172.113 365.329 174.545 361.173 176.119 356.158L190.779 287.014H221.303L218.972 298.036C226.037 290.123 234.304 286.166 243.772 286.166C250.98 286.166 256.703 288.144 260.942 292.101C265.182 296.057 267.302 302.063 267.302 310.118C267.302 314.216 266.807 318.809 265.817 323.896C264.828 328.842 263.415 334.92 261.578 342.127C260.448 346.507 259.388 350.817 258.398 355.057C257.551 359.155 257.127 362.405 257.127 364.808C257.127 367.634 257.762 369.824 259.034 371.379C260.306 372.933 262.497 373.711 265.605 373.711C269.845 373.711 273.237 372.226 275.78 369.259C277.401 367.278 279.021 364.636 280.642 361.335C280.635 360.942 280.632 360.545 280.632 360.145C280.632 349.687 282.68 338.735 286.778 327.288C291.018 315.7 297.236 305.95 305.433 298.036C313.77 289.981 323.662 285.953 335.108 285.953C340.902 285.953 345.213 286.943 348.039 288.921C350.865 290.899 352.278 293.514 352.278 296.765V297.188L354.398 287.014H385.134L359.273 409.958C356.447 423.524 351.431 432.922 344.224 438.15C337.158 443.379 329.314 445.993 320.694 445.993C314.053 445.993 308.188 443.803 303.101 439.422C298.155 435.183 295.682 429.742 295.682 423.101C295.682 416.883 297.236 411.795 300.345 407.838C303.454 403.881 307.482 400.773 312.428 398.512C317.374 396.251 324.015 393.848 332.353 391.305L334.261 382.401C326.912 390.315 318.433 394.271 308.824 394.271C300.769 394.271 294.056 391.516 288.687 386.005C286.155 383.407 284.221 380.118 282.883 376.138C280.12 380.59 277.189 384.021 274.085 386.429C267.302 391.657 260.236 394.271 252.888 394.271C244.268 394.271 237.908 392.01 233.81 387.488C229.853 382.825 227.874 377.102 227.874 370.319C227.874 367.352 228.228 364.03 228.935 360.356C229.641 356.541 230.347 352.867 231.054 349.334C231.901 345.802 232.467 343.54 232.75 342.551C233.881 337.605 234.94 332.728 235.93 327.924C236.919 323.119 237.413 319.233 237.413 316.266C237.413 309.059 234.87 305.455 229.782 305.455C226.108 305.455 222.858 307.293 220.031 310.967C217.205 314.5 214.944 319.163 213.248 324.957L198.834 393H168.31L170.742 381.523C168.981 383.356 167.14 384.922 165.215 386.217C157.019 391.587 148.893 394.271 140.838 394.271C134.055 394.271 128.543 392.152 124.304 387.912C121.361 384.868 119.474 380.731 118.645 375.502C110.358 387.166 99.4998 393 86.0654 393C80.2716 393 75.5374 391.445 71.8633 388.336C68.3306 385.227 66.1399 380.705 65.292 374.771C61.6179 380.423 57.166 385.086 51.9375 388.76C46.8502 392.434 40.8443 394.271 33.9199 394.271C25.865 394.271 19.1522 391.516 13.7822 386.005C8.41227 380.494 5.72757 371.873 5.72754 360.144C5.7276 349.686 7.77697 338.734 11.875 327.288C16.1144 315.7 22.3322 305.95 30.5283 298.036C38.8659 289.981 48.7586 285.953 60.2051 285.953C65.9986 285.953 70.3085 286.943 73.1348 288.921C75.961 290.899 77.3739 293.514 77.374 296.764V297.612L86.8223 257.546C86.8683 257.579 96.0389 264.18 100.255 267.459C104.472 270.739 111.962 277.525 111.995 277.556L94.7559 359.084C94.1906 361.204 93.9082 363.465 93.9082 365.867C93.9082 368.693 94.5446 370.743 95.8164 372.015C97.2296 373.145 99.491 373.71 102.6 373.71C106.556 373.71 109.948 372.014 112.774 368.623C115.742 365.232 118.074 360.709 119.77 355.057H119.853L134.759 285.796C126.853 280.847 117.209 273.874 105.83 264.873C95.8652 256.901 87.2949 250.424 80.1201 245.441C73.1446 240.658 65.4711 236.572 57.1006 233.184C48.9293 229.796 40.5581 228.102 31.9883 228.102C28.9991 228.102 26.7067 228.201 25.1123 228.4L69.6562 21.2256C56.3032 26.6068 45.9396 34.8782 38.5654 46.0391C31.3907 57.0006 27.8028 70.4534 27.8027 86.3975C27.8027 93.7715 28.5004 98.9538 29.8955 101.943C31.2906 104.734 31.9883 106.328 31.9883 106.727C21.2261 106.727 13.1536 104.534 7.77246 100.149C2.5909 95.5654 5.08618e-06 88.091 0 77.7275C0.000129154 64.9725 5.18248 52.6161 15.5459 40.6582C26.1088 28.5009 39.5617 18.7345 55.9043 11.3604C72.2469 3.78695 88.59 9.04137e-05 104.933 0ZM330.869 398.087C323.38 400.631 317.585 403.599 313.487 406.99C309.389 410.382 307.34 414.763 307.34 420.133C307.34 421.828 308.188 423.383 309.884 424.796C311.58 426.35 313.558 427.128 315.819 427.128C318.363 427.128 320.765 425.785 323.026 423.101C325.287 420.557 327.053 416.388 328.325 410.594L330.869 398.087ZM341.68 299.096C336.027 299.096 330.94 302.417 326.418 309.059C321.896 315.559 318.363 323.473 315.819 332.8C313.276 341.985 312.004 350.111 312.004 357.177C312.004 364.242 312.992 368.765 314.971 370.743C317.09 372.722 319.635 373.711 322.603 373.711C325.853 373.711 329.102 372.367 332.353 369.683C335.744 366.856 338.146 362.9 339.56 357.812L350.371 306.515C349.241 301.569 346.343 299.096 341.68 299.096ZM66.7754 299.096C61.123 299.096 56.0356 302.417 51.5137 309.059C46.9917 315.559 43.4587 323.473 40.915 332.8C38.3715 341.985 37.0996 350.111 37.0996 357.177C37.0997 364.242 38.0891 368.764 40.0674 370.742C42.1871 372.721 44.7307 373.71 47.6982 373.71C51.0897 373.71 54.4816 372.156 57.873 369.047C61.4058 365.938 63.8082 361.627 65.0801 356.116V355.057L75.4668 306.515C74.1949 301.569 71.2975 299.096 66.7754 299.096ZM184.427 70.2539C192.598 70.254 198.676 71.6495 202.662 74.4395C206.648 77.2297 208.642 80.917 208.642 85.501V87.5938L211.93 71.749H254.979L233.454 173.393C232.657 176.382 232.259 179.571 232.259 182.959C232.259 191.529 236.345 195.814 244.516 195.814C250.096 195.814 254.879 193.223 258.865 188.041C263.05 182.859 266.339 176.083 268.73 167.713H268.826L289.17 71.749H332.219L328.333 90.2842C335.109 84.3052 341.188 79.721 346.569 76.5322C352.15 73.3436 358.129 71.7491 364.506 71.749C370.883 71.749 375.867 73.9416 379.454 78.3262C383.241 82.7106 385.134 87.9919 385.134 94.1699C385.134 99.9496 383.241 105.032 379.454 109.417C375.667 113.801 370.385 115.994 363.609 115.994C359.225 115.994 356.235 114.997 354.641 113.004C353.246 110.812 352.15 107.723 351.353 103.737C350.755 101.146 350.156 99.2524 349.559 98.0566C348.961 96.8609 347.864 96.2627 346.27 96.2627C342.085 96.2628 338.497 97.1596 335.508 98.9531C332.718 100.548 329.03 103.438 324.446 107.623L300.53 221.226H257.481L260.823 205.458C258.565 207.864 256.219 209.931 253.783 211.658C243.021 219.232 232.159 223.019 221.197 223.019C212.827 223.018 206.051 220.726 200.869 216.143C195.887 211.359 192.897 204.484 191.9 195.516C186.121 203.687 179.643 210.363 172.468 215.545C165.492 220.527 157.122 223.019 147.356 223.019C135.996 223.018 126.529 219.132 118.956 211.359C111.383 203.587 107.596 191.43 107.596 174.888C107.596 160.139 110.485 144.693 116.265 128.55C122.244 112.207 131.014 98.4558 142.573 87.2949C154.332 75.9348 168.283 70.254 184.427 70.2539ZM193.693 88.7891C185.722 88.7894 178.546 93.473 172.169 102.84C165.791 112.008 160.809 123.169 157.222 136.322C153.634 149.277 151.841 160.737 151.841 170.702C151.841 180.667 153.235 187.044 156.025 189.835C159.015 192.625 162.603 194.02 166.788 194.021C171.771 194.021 176.653 191.728 181.437 187.145C186.419 182.361 189.808 175.884 191.602 167.713L205.951 100.149C205.951 97.5585 204.954 95.0674 202.961 92.6758C200.968 90.085 197.879 88.7891 193.693 88.7891Z" stroke="#FF8800" stroke-width="4" stroke-linejoin="round" mask="url(#path-1-inside-1_3_137)"/>
</svg>
