<svg width="98" height="32" viewBox="0 0 98 32" fill="none" xmlns="http://www.w3.org/2000/svg">
<path d="M87.94 31.68C86.9374 31.68 86.052 31.3493 85.284 30.688C84.5373 30.048 84.164 29.2267 84.164 28.224C84.164 27.2853 84.3987 26.5173 84.868 25.92C85.3373 25.3227 85.9453 24.8533 86.692 24.512C87.4387 24.1707 88.4413 23.808 89.7 23.424L89.988 22.08C88.8787 23.2747 87.5987 23.872 86.148 23.872C84.932 23.872 83.9187 23.456 83.108 22.624C82.2974 21.792 81.892 20.4907 81.892 18.72C81.892 17.1413 82.2013 15.488 82.82 13.76C83.46 12.0107 84.3987 10.5387 85.636 9.344C86.8947 8.128 88.388 7.52 90.116 7.52C90.9907 7.52 91.6413 7.66933 92.068 7.968C92.4947 8.26667 92.708 8.66133 92.708 9.152V9.216L93.028 7.68H97.668L93.764 26.24C93.3373 28.288 92.58 29.7067 91.492 30.496C90.4253 31.2853 89.2414 31.68 87.94 31.68ZM88.228 20.768C88.7187 20.768 89.2093 20.5653 89.7 20.16C90.212 19.7333 90.5747 19.136 90.788 18.368L92.42 10.624C92.2493 9.87733 91.812 9.504 91.108 9.504C90.2547 9.504 89.4867 10.0053 88.804 11.008C88.1213 11.9893 87.588 13.184 87.204 14.592C86.82 15.9787 86.628 17.2053 86.628 18.272C86.628 19.3387 86.7773 20.0213 87.076 20.32C87.396 20.6187 87.78 20.768 88.228 20.768ZM87.204 28.832C87.588 28.832 87.9507 28.6293 88.292 28.224C88.6333 27.84 88.9 27.2107 89.092 26.336L89.476 24.448C88.3453 24.832 87.4707 25.28 86.852 25.792C86.2333 26.304 85.924 26.9653 85.924 27.776C85.924 28.032 86.052 28.2667 86.308 28.48C86.564 28.7147 86.8627 28.832 87.204 28.832Z" fill="white"/>
<path d="M77.7038 23.872C76.4024 23.872 75.4424 23.5307 74.8238 22.848C74.2264 22.144 73.9278 21.28 73.9278 20.256C73.9278 19.808 73.9811 19.3067 74.0878 18.752C74.1944 18.176 74.3011 17.6213 74.4078 17.088C74.5358 16.5547 74.6211 16.2133 74.6638 16.064C74.8344 15.3173 74.9944 14.5813 75.1438 13.856C75.2931 13.1307 75.3678 12.544 75.3678 12.096C75.3678 11.008 74.9838 10.464 74.2158 10.464C73.6611 10.464 73.1704 10.7413 72.7438 11.296C72.3171 11.8293 71.9758 12.5333 71.7198 13.408L69.5438 23.68H64.9358L68.3278 7.68H72.9358L72.5838 9.344C73.6504 8.14933 74.8984 7.552 76.3278 7.552C77.4158 7.552 78.2798 7.85067 78.9198 8.448C79.5598 9.04533 79.8798 9.952 79.8798 11.168C79.8798 11.7867 79.8051 12.48 79.6558 13.248C79.5064 13.9947 79.2931 14.912 79.0158 16C78.8451 16.6613 78.6851 17.312 78.5358 17.952C78.4078 18.5707 78.3438 19.0613 78.3438 19.424C78.3438 19.8507 78.4398 20.1813 78.6318 20.416C78.8238 20.6507 79.1544 20.768 79.6238 20.768C80.2638 20.768 80.7758 20.544 81.1598 20.096C81.5438 19.6267 81.9278 18.912 82.3118 17.952H83.6558C82.8664 20.2987 81.9491 21.8773 80.9038 22.688C79.8798 23.4773 78.8131 23.872 77.7038 23.872Z" fill="white"/>
<path d="M62.9645 5.952C62.2605 5.952 61.6632 5.70667 61.1725 5.216C60.6819 4.72533 60.4365 4.128 60.4365 3.424C60.4365 2.72 60.6819 2.12267 61.1725 1.632C61.6632 1.12 62.2605 0.863998 62.9645 0.863998C63.6685 0.863998 64.2659 1.12 64.7565 1.632C65.2685 2.12267 65.5245 2.72 65.5245 3.424C65.5245 4.128 65.2685 4.72533 64.7565 5.216C64.2659 5.70667 63.6685 5.952 62.9645 5.952ZM60.7885 23.872C59.7645 23.872 58.9325 23.552 58.2925 22.912C57.6739 22.272 57.3645 21.312 57.3645 20.032C57.3645 19.4987 57.4499 18.8053 57.6205 17.952L59.7965 7.68H64.4045L62.1005 18.56C62.0152 18.88 61.9725 19.2213 61.9725 19.584C61.9725 20.0107 62.0685 20.32 62.2605 20.512C62.4739 20.6827 62.8152 20.768 63.2845 20.768C63.9032 20.768 64.4792 20.512 65.0125 20C65.5458 19.4667 65.9298 18.784 66.1645 17.952H67.5085C66.7192 20.256 65.7059 21.824 64.4685 22.656C63.2312 23.4667 62.0045 23.872 60.7885 23.872Z" fill="white"/>
<path d="M44.648 23.872C43.432 23.872 42.4187 23.456 41.608 22.624C40.7973 21.792 40.392 20.4907 40.392 18.72C40.392 17.1413 40.7013 15.488 41.32 13.76C41.96 12.0107 42.8987 10.5387 44.136 9.344C45.3947 8.128 46.888 7.52 48.616 7.52C49.4907 7.52 50.1413 7.66933 50.568 7.968C50.9947 8.26667 51.208 8.66133 51.208 9.152V9.28L52.776 1.92L57.512 1.28L53.832 18.56C53.7467 18.88 53.704 19.2213 53.704 19.584C53.704 20.0107 53.8 20.32 53.992 20.512C54.2053 20.6827 54.5467 20.768 55.016 20.768C55.6133 20.768 56.1253 20.512 56.552 20C57 19.488 57.352 18.8053 57.608 17.952H58.952C57.6507 21.7707 55.5067 23.68 52.52 23.68C51.6453 23.68 50.9307 23.4453 50.376 22.976C49.8427 22.5067 49.512 21.824 49.384 20.928C48.8293 21.7813 48.1573 22.4853 47.368 23.04C46.6 23.5947 45.6933 23.872 44.648 23.872ZM46.728 20.768C47.24 20.768 47.752 20.5333 48.264 20.064C48.7973 19.5947 49.16 18.944 49.352 18.112V17.952L50.92 10.624C50.728 9.87733 50.2907 9.504 49.608 9.504C48.7547 9.504 47.9867 10.0053 47.304 11.008C46.6213 11.9893 46.088 13.184 45.704 14.592C45.32 15.9787 45.128 17.2053 45.128 18.272C45.128 19.3387 45.2773 20.0213 45.576 20.32C45.896 20.6187 46.28 20.768 46.728 20.768Z" fill="white"/>
<path d="M30.9528 7.68H35.5608L35.1448 9.664C35.8701 9.024 36.5208 8.53333 37.0968 8.192C37.6941 7.85067 38.3341 7.68 39.0168 7.68C39.6994 7.68 40.2328 7.91467 40.6168 8.384C41.0221 8.85333 41.2248 9.41867 41.2248 10.08C41.2248 10.6987 41.0221 11.2427 40.6168 11.712C40.2114 12.1813 39.6461 12.416 38.9208 12.416C38.4514 12.416 38.1314 12.3093 37.9608 12.096C37.8114 11.8613 37.6941 11.5307 37.6088 11.104C37.5448 10.8267 37.4808 10.624 37.4168 10.496C37.3528 10.368 37.2354 10.304 37.0648 10.304C36.6168 10.304 36.2328 10.4 35.9128 10.592C35.6141 10.7627 35.2194 11.072 34.7288 11.52L32.1688 23.68H27.5608L30.9528 7.68Z" fill="#FF7300"/>
<path d="M15.773 23.872C14.557 23.872 13.5437 23.456 12.733 22.624C11.9223 21.792 11.517 20.4907 11.517 18.72C11.517 17.1413 11.8263 15.488 12.445 13.76C13.085 12.0107 14.0237 10.5387 15.261 9.344C16.5197 8.128 18.013 7.52 19.741 7.52C20.6157 7.52 21.2663 7.66933 21.693 7.968C22.1197 8.26667 22.333 8.66133 22.333 9.152V9.376L22.685 7.68H27.293L24.989 18.56C24.9037 18.88 24.861 19.2213 24.861 19.584C24.861 20.5013 25.2983 20.96 26.173 20.96C26.7703 20.96 27.2823 20.6827 27.709 20.128C28.157 19.5733 28.509 18.848 28.765 17.952H30.109C29.3197 20.256 28.3383 21.824 27.165 22.656C26.013 23.4667 24.8503 23.872 23.677 23.872C22.781 23.872 22.0557 23.6267 21.501 23.136C20.9677 22.624 20.6477 21.888 20.541 20.928C19.9223 21.8027 19.229 22.5173 18.461 23.072C17.7143 23.6053 16.8183 23.872 15.773 23.872ZM17.853 20.768C18.3863 20.768 18.909 20.5227 19.421 20.032C19.9543 19.52 20.317 18.8267 20.509 17.952L22.045 10.72C22.045 10.4427 21.9383 10.176 21.725 9.92C21.5117 9.64267 21.181 9.504 20.733 9.504C19.8797 9.504 19.1117 10.0053 18.429 11.008C17.7463 11.9893 17.213 13.184 16.829 14.592C16.445 15.9787 16.253 17.2053 16.253 18.272C16.253 19.3387 16.4023 20.0213 16.701 20.32C17.021 20.6187 17.405 20.768 17.853 20.768Z" fill="#FF7300"/>
<path d="M17.696 31.68C16.736 31.68 15.7867 31.4027 14.848 30.848C13.9307 30.3147 12.7573 29.4827 11.328 28.352C10.2613 27.4987 9.344 26.8053 8.576 26.272C7.82933 25.76 7.008 25.3227 6.112 24.96C5.23733 24.5973 4.34133 24.416 3.424 24.416C3.104 24.416 2.85867 24.4267 2.688 24.448L7.456 2.272C6.02667 2.848 4.91733 3.73333 4.128 4.928C3.36 6.10133 2.976 7.54133 2.976 9.248C2.976 10.0373 3.05067 10.592 3.2 10.912C3.34933 11.2107 3.424 11.3813 3.424 11.424C2.272 11.424 1.408 11.1893 0.832 10.72C0.277333 10.2293 0 9.42933 0 8.32C0 6.95467 0.554667 5.632 1.664 4.352C2.79467 3.05067 4.23467 2.00533 5.984 1.216C7.73333 0.405333 9.48267 0 11.232 0C11.5307 0 11.9573 0.0213331 12.512 0.0639992L7.584 23.04C8.18133 23.1893 8.78933 23.4027 9.408 23.68C10.048 23.9787 10.816 24.3733 11.712 24.864C13.0987 25.6107 14.2827 26.176 15.264 26.56C16.2453 26.9653 17.2693 27.168 18.336 27.168C19.296 27.168 20.192 26.9973 21.024 26.656C20.8533 28.2133 20.4693 29.44 19.872 30.336C19.296 31.232 18.5707 31.68 17.696 31.68Z" fill="#FF7300"/>
</svg>
